{"glyphs":{"A":{"ha":581,"x_min":0,"x_max":0,"o":"m 546 101 b 553 50 549 85 551 68 b 522 10 554 28 544 14 b 414 10 486 4 450 4 b 372 50 392 13 378 28 b 358 111 368 71 365 92 b 294 142 349 147 329 156 b 211 57 254 126 221 104 b 144 7 203 21 181 7 b 76 7 122 7 100 6 b 29 67 35 11 25 24 b 35 100 31 78 33 89 l 176 879 b 279 967 190 960 197 965 l 290 967 b 290 965 290 967 290 967 b 336 965 306 965 321 967 b 399 913 376 963 389 951 b 404 885 401 903 403 894 l 546 101 m 272 318 b 313 335 285 314 303 322 b 324 392 324 351 324 371 b 303 500 319 426 317 465 b 290 510 301 504 294 510 b 279 500 286 510 281 504 b 254 350 261 453 256 401 b 272 318 253 336 258 324 "},"B":{"ha":546,"x_min":0,"x_max":0,"o":"m 471 464 b 518 342 508 432 518 390 b 517 143 517 276 517 210 b 515 104 517 131 517 117 b 433 13 508 56 481 25 b 378 7 415 8 396 7 b 104 7 286 6 196 6 b 28 83 39 7 28 18 b 28 486 26 217 28 351 b 28 878 28 617 26 747 b 115 967 28 958 36 965 l 314 967 b 376 961 335 967 356 965 b 467 865 428 951 460 918 b 469 815 469 849 469 832 l 469 610 b 457 521 469 581 469 550 b 471 464 449 499 453 479 m 210 753 b 210 594 208 700 208 647 b 269 542 213 557 233 542 b 333 599 310 542 329 558 b 333 671 335 622 333 647 b 333 739 333 694 333 717 l 333 750 b 269 806 328 789 310 806 b 210 753 232 807 213 790 m 335 222 b 335 351 336 265 336 308 b 274 403 332 388 313 403 b 210 349 232 404 214 389 b 210 286 208 328 210 307 b 210 225 210 265 208 244 b 271 167 213 183 231 167 b 335 222 310 167 332 183 "},"C":{"ha":483,"x_min":0,"x_max":0,"o":"m 449 343 b 454 310 451 332 454 321 l 454 76 b 454 65 454 72 454 69 b 401 11 450 26 439 15 b 379 10 394 11 386 10 b 158 11 306 10 232 10 l 129 11 b 32 104 72 18 39 49 b 28 167 28 125 28 146 l 28 485 b 28 808 28 593 28 701 b 32 871 29 829 29 850 b 117 960 40 918 68 950 b 167 965 133 963 150 965 l 383 965 b 411 964 392 965 401 965 b 451 924 438 960 449 949 b 451 822 456 890 457 856 b 438 792 450 811 444 800 b 346 726 411 764 379 743 b 310 743 329 718 317 725 b 300 769 306 751 304 761 b 256 797 292 790 276 799 b 215 763 235 794 219 783 b 211 718 211 749 211 732 b 211 251 210 563 210 407 b 215 207 211 236 213 221 b 263 174 222 185 240 172 b 303 210 283 175 297 188 b 306 238 304 218 306 228 b 356 321 304 275 324 301 b 418 358 376 333 396 347 b 449 343 431 365 446 357 "},"D":{"ha":533,"x_min":0,"x_max":0,"o":"m 506 163 b 497 96 506 140 501 117 b 418 15 489 51 461 25 b 350 7 396 11 374 7 b 100 7 267 6 183 7 l 83 7 b 29 58 44 11 32 21 b 28 110 28 76 28 93 l 28 492 l 28 878 b 115 967 29 958 36 965 l 354 967 b 422 960 378 965 400 964 b 499 885 464 951 490 925 b 506 822 503 864 506 843 m 208 219 b 264 167 213 185 231 168 b 322 217 296 167 317 183 b 325 256 324 229 325 243 l 325 717 b 319 767 325 733 324 750 b 264 806 313 793 292 806 b 210 764 235 806 215 792 b 206 708 207 746 206 726 l 206 486 b 206 271 206 414 206 343 b 208 219 206 254 206 236 "},"E":{"ha":493,"x_min":0,"x_max":0,"o":"m 465 132 b 465 69 465 117 465 96 b 403 7 464 22 450 7 b 151 6 319 6 235 6 l 135 6 b 92 7 121 6 106 6 l 90 7 b 60 10 78 7 68 8 b 57 11 58 10 58 11 b 54 13 56 11 54 11 l 51 13 b 47 15 50 14 49 15 l 46 17 b 42 19 44 17 43 18 l 42 21 b 40 21 42 21 40 21 b 31 46 35 28 31 36 b 29 51 29 47 29 50 b 28 74 29 58 28 65 b 28 118 26 88 28 103 l 28 265 b 28 483 28 339 28 411 l 28 853 b 28 899 28 868 26 883 b 90 964 29 950 40 964 b 403 964 194 967 299 965 b 465 901 450 964 464 950 b 385 738 468 789 464 790 l 365 725 b 306 750 329 704 322 707 b 300 765 304 754 303 760 b 264 788 293 781 281 788 b 224 761 246 788 231 778 b 218 733 221 753 218 743 l 218 597 b 221 575 218 590 219 582 b 261 554 226 557 243 547 b 297 571 274 558 285 565 b 336 593 310 578 322 588 b 374 574 356 603 371 594 b 375 478 379 542 378 510 b 339 428 371 456 357 440 b 268 381 317 413 293 396 b 217 288 232 360 217 329 b 218 244 217 274 218 258 l 218 238 b 224 210 218 228 221 218 b 264 183 231 193 246 183 b 300 206 281 183 293 190 b 306 222 303 211 304 217 b 308 229 307 224 308 226 b 357 293 314 257 331 278 b 419 332 378 307 399 321 b 456 336 433 339 444 346 b 465 308 458 332 465 321 "},"F":{"ha":494,"x_min":0,"x_max":0,"o":"m 465 901 b 385 738 469 789 464 790 l 367 725 b 307 750 329 704 322 707 b 300 765 304 754 303 760 b 264 788 293 781 281 788 b 224 761 246 788 231 778 b 218 733 221 753 219 743 l 218 597 b 222 575 218 590 219 582 b 261 554 228 557 243 547 b 297 571 274 558 286 565 b 336 593 310 578 322 588 b 375 574 356 603 371 594 b 375 478 379 542 379 510 b 340 428 372 456 358 440 l 269 381 b 218 288 233 360 217 329 b 218 89 219 221 218 154 b 135 6 217 15 207 6 b 68 8 113 6 90 6 b 31 46 46 11 33 25 b 28 103 28 65 28 83 l 28 483 b 28 853 28 607 28 729 l 28 899 b 92 964 31 950 42 964 b 404 964 196 967 300 965 b 465 901 451 964 464 950 "},"G":{"ha":533,"x_min":0,"x_max":0,"o":"m 506 93 b 415 6 504 15 496 6 l 182 6 b 115 11 160 6 136 7 b 31 106 64 24 36 54 b 28 168 28 126 28 147 l 28 488 l 28 811 b 32 874 28 832 28 853 b 107 957 39 918 64 946 b 163 965 125 963 144 965 l 385 965 b 418 963 396 965 407 964 b 451 928 438 958 450 947 b 451 815 457 890 457 853 b 431 776 450 799 443 785 b 346 718 403 756 375 736 b 303 738 325 706 313 713 b 294 765 300 747 299 757 b 253 789 286 782 271 790 b 217 757 235 786 221 776 b 211 718 214 744 211 732 l 211 251 b 213 229 211 244 211 236 b 282 175 218 188 242 168 b 324 214 306 178 319 190 b 328 260 326 229 326 244 l 328 379 b 368 456 328 413 342 438 b 374 460 371 457 372 458 l 376 460 b 379 463 379 460 379 463 b 381 465 381 464 382 464 b 403 481 389 471 396 475 l 403 479 b 436 503 404 479 436 503 l 453 513 b 504 481 485 531 500 519 b 506 446 506 468 506 457 "},"H":{"ha":551,"x_min":0,"x_max":0,"o":"m 524 481 b 522 106 524 356 524 231 b 418 6 522 11 515 4 b 385 7 407 6 396 6 b 336 58 350 11 338 24 b 335 172 333 96 335 133 b 333 354 335 232 335 293 b 315 404 333 372 335 393 b 258 390 293 415 275 400 b 218 313 229 372 218 344 l 218 136 b 217 57 218 110 219 83 b 167 7 214 22 201 10 b 76 7 136 4 106 6 b 36 47 50 10 39 22 b 33 104 33 67 33 86 b 33 667 33 292 35 479 b 28 872 33 735 28 803 b 124 965 28 956 39 965 b 218 872 211 965 218 958 l 218 644 b 222 593 218 628 219 610 b 265 571 226 571 244 563 b 335 665 306 589 335 615 b 335 869 333 733 335 801 b 336 921 335 886 335 904 b 375 963 340 946 351 958 b 483 963 411 968 447 968 b 519 924 504 958 517 944 b 522 868 522 906 522 886 b 524 481 524 739 522 610 "},"I":{"ha":238,"x_min":0,"x_max":0,"o":"m 210 100 b 207 49 210 83 210 67 b 171 11 206 28 193 14 b 64 11 135 7 100 7 b 31 46 44 15 33 28 b 28 103 28 65 28 83 l 28 489 b 28 882 28 490 28 751 b 114 965 28 957 38 965 b 210 874 201 965 210 960 "},"J":{"ha":511,"x_min":0,"x_max":0,"o":"m 483 511 b 483 165 483 396 483 281 b 481 103 483 144 483 124 b 378 6 472 44 436 13 b 367 4 375 4 371 4 b 140 6 292 4 215 3 b 29 114 68 7 31 43 b 28 399 26 210 28 304 b 68 475 28 432 40 457 b 135 518 90 489 113 506 b 179 494 158 532 175 522 b 181 449 181 479 181 464 l 181 283 b 181 239 181 268 181 254 b 240 167 183 186 201 165 b 299 240 279 167 296 186 b 300 303 300 261 300 282 l 300 863 b 303 922 300 882 300 903 b 342 964 306 949 317 960 b 443 964 375 968 410 968 b 481 926 464 961 478 947 b 483 867 482 907 483 886 "},"K":{"ha":557,"x_min":0,"x_max":0,"o":"m 521 97 b 529 47 524 81 528 64 b 497 8 531 25 519 11 b 367 10 453 3 410 1 b 286 90 324 19 297 49 b 258 208 276 129 268 169 b 235 257 254 226 253 246 b 215 211 215 246 217 226 b 213 96 214 172 214 133 b 211 44 213 79 213 61 b 174 8 208 24 194 10 b 65 8 138 3 101 3 b 31 47 44 11 32 25 b 28 92 29 61 28 76 l 28 878 b 31 924 28 893 29 908 b 68 961 33 944 47 958 b 175 960 104 965 140 965 b 210 926 194 957 207 944 b 213 875 213 910 213 892 b 215 715 214 822 213 769 b 235 665 215 697 207 667 b 261 710 254 664 257 693 b 294 836 274 751 283 794 b 310 892 299 856 303 874 b 379 954 322 922 346 944 b 497 960 418 967 457 965 b 528 919 519 957 531 943 b 515 864 525 901 521 882 b 442 583 492 771 468 676 b 439 460 431 542 431 501 b 521 97 467 340 494 218 "},"L":{"ha":490,"x_min":0,"x_max":0,"o":"m 461 221 b 461 56 464 165 464 111 b 417 8 461 24 447 13 b 388 7 407 7 397 7 l 161 7 b 121 11 147 7 133 8 b 32 100 72 19 39 51 b 29 163 29 121 29 142 b 28 515 28 281 28 397 b 29 879 28 636 28 757 b 114 964 29 956 38 963 l 147 964 b 214 894 201 961 213 951 l 214 843 b 214 293 214 660 214 476 b 217 231 214 272 214 251 b 285 179 222 192 246 175 b 346 204 307 181 328 192 b 408 246 367 218 386 233 b 461 221 440 265 460 257 "},"M":{"ha":667,"x_min":0,"x_max":0,"o":"m 638 917 b 639 867 639 900 639 883 l 639 110 b 636 49 639 89 639 68 b 599 11 633 26 619 14 b 485 11 561 7 522 7 b 447 49 464 14 450 26 b 446 99 446 65 446 82 b 444 264 444 154 446 210 b 438 326 444 285 440 306 b 424 342 438 333 433 340 b 407 331 415 343 410 338 b 390 289 400 317 394 303 b 363 196 381 258 372 226 b 344 154 357 182 351 168 b 319 154 340 146 326 146 b 303 196 310 167 307 181 b 271 299 292 231 282 265 b 254 335 267 311 260 322 b 244 340 253 338 249 339 b 232 331 239 340 235 336 b 222 281 224 315 224 299 l 222 133 b 221 60 222 108 222 83 b 171 10 218 25 207 13 b 74 11 139 8 106 8 b 29 58 43 13 32 25 b 28 108 26 75 28 92 l 28 483 b 28 865 28 611 28 738 b 29 915 28 882 26 899 b 74 964 32 949 43 963 b 182 964 110 965 146 965 b 232 924 207 963 224 947 l 244 881 b 297 676 263 813 279 744 b 314 629 301 660 307 644 b 350 629 322 613 342 613 b 368 683 357 647 364 665 b 417 869 385 744 401 807 l 429 914 b 494 965 438 947 458 965 b 590 964 526 965 558 967 b 638 917 622 961 633 949 "},"N":{"ha":525,"x_min":0,"x_max":0,"o":"m 497 486 b 497 106 497 360 497 232 b 494 49 497 86 496 68 b 457 11 492 28 479 14 b 344 11 419 7 382 7 b 299 49 321 13 306 26 b 283 103 293 67 289 85 b 242 257 269 154 257 206 b 213 292 238 272 235 296 b 199 253 196 289 199 268 b 196 89 197 199 197 143 b 118 8 194 18 186 10 b 67 11 101 8 83 8 b 31 49 44 15 33 26 b 28 94 28 64 28 79 l 28 879 b 118 965 28 958 38 965 b 222 883 196 965 201 961 b 264 729 236 832 249 781 b 290 690 268 714 271 689 b 308 738 313 693 308 719 b 311 879 311 785 310 832 b 396 965 313 957 319 964 b 442 964 411 965 426 965 b 496 907 482 961 493 950 b 497 856 497 890 497 874 "},"O":{"ha":539,"x_min":0,"x_max":0,"o":"m 511 158 b 507 96 511 138 511 117 b 422 11 500 49 469 19 b 393 8 413 8 403 8 b 149 8 313 8 231 7 b 28 128 69 10 32 49 l 28 157 b 28 817 28 376 28 596 b 31 867 28 833 28 850 b 107 956 36 913 63 943 b 164 964 125 961 144 963 l 374 964 b 401 963 383 964 393 964 b 510 847 471 954 506 917 b 511 772 511 822 511 797 l 511 489 m 235 176 b 326 221 275 151 321 174 b 328 267 328 236 328 251 l 328 476 b 328 715 328 476 328 636 b 322 767 326 732 326 750 b 265 803 317 792 294 804 b 215 765 239 801 221 789 b 211 714 211 749 211 731 l 211 254 b 214 208 211 239 211 224 b 235 176 215 194 222 183 "},"P":{"ha":542,"x_min":0,"x_max":0,"o":"m 513 831 b 514 404 514 689 514 546 b 513 382 514 397 514 389 b 401 269 507 311 471 275 b 311 268 371 268 340 268 l 276 268 b 211 200 228 264 214 250 b 210 93 210 165 211 129 b 207 47 210 78 210 63 b 169 11 204 26 190 14 b 68 11 136 7 101 7 b 31 49 46 14 33 28 b 28 106 29 68 28 86 l 28 486 b 28 878 28 617 28 747 b 117 965 29 958 35 965 l 378 965 b 513 831 474 964 513 926 m 325 610 b 325 722 325 594 325 690 b 322 761 325 736 325 749 b 278 804 318 789 304 801 b 213 753 239 810 218 792 b 210 718 211 742 210 731 l 210 504 b 214 458 211 489 211 474 b 267 418 219 431 238 418 b 321 457 296 418 315 431 b 325 496 324 469 325 483 "},"Q":{"ha":571,"x_min":0,"x_max":0,"o":"m 543 68 b 540 50 544 63 543 56 b 469 -19 526 18 503 -6 b 438 -14 458 -24 447 -21 b 329 11 404 10 367 11 b 181 11 279 10 231 10 b 131 13 164 11 147 11 b 29 117 69 21 35 56 b 28 208 28 147 28 178 l 28 492 b 28 810 28 467 28 706 b 31 872 28 831 28 851 b 124 965 38 924 72 957 l 135 965 b 401 965 224 965 313 968 b 508 861 465 963 503 925 b 511 788 511 838 511 813 l 511 226 b 538 85 511 176 507 128 b 543 68 538 83 538 85 m 264 172 b 322 214 296 171 317 185 b 326 260 326 229 326 244 l 326 724 b 325 758 326 735 326 747 b 267 807 319 792 300 807 b 213 754 233 807 217 792 b 211 710 211 740 211 725 l 211 494 b 211 268 211 418 211 343 b 214 217 211 250 211 233 b 264 172 218 188 236 174 "},"R":{"ha":536,"x_min":0,"x_max":0,"o":"m 508 54 b 481 13 511 31 503 15 b 372 13 444 7 408 7 b 335 43 354 14 342 26 b 321 86 329 57 325 71 b 276 250 306 140 292 196 b 251 326 269 276 260 301 b 233 346 249 335 244 346 b 218 325 221 346 219 333 b 213 257 215 303 213 279 b 211 97 211 204 211 151 b 210 53 211 83 211 67 b 169 11 206 26 194 14 b 68 11 136 7 101 7 b 31 50 47 15 33 28 b 29 106 29 68 29 88 b 28 488 28 233 28 360 l 28 863 b 29 914 29 879 28 896 b 78 964 33 950 44 960 b 107 965 88 965 97 965 l 374 965 b 408 964 385 965 397 965 b 504 868 463 956 497 922 b 507 828 507 854 507 842 l 507 521 b 457 407 508 475 499 435 b 438 346 436 393 432 371 b 449 297 440 329 444 313 b 500 99 465 231 482 164 b 508 54 503 83 507 69 m 269 551 b 328 601 304 551 324 567 b 332 679 332 625 331 650 b 326 760 331 703 331 732 b 265 806 322 793 300 807 b 214 756 235 804 217 789 b 214 603 208 706 210 654 b 269 551 217 567 236 551 "},"S":{"ha":485,"x_min":0,"x_max":0,"o":"m 454 481 b 457 440 456 467 457 454 l 457 150 b 456 139 457 147 457 143 b 326 8 453 51 414 11 b 99 8 250 7 174 8 b 64 11 88 8 75 10 b 31 46 46 15 33 26 b 32 158 26 83 25 121 b 56 197 35 175 43 188 b 140 254 83 217 111 236 b 182 236 161 267 174 260 b 190 208 186 226 188 217 b 225 183 196 193 208 183 b 267 206 243 182 258 189 b 275 239 272 215 275 228 b 275 351 276 276 278 314 b 215 413 272 393 257 408 b 147 415 192 415 169 414 b 36 524 74 419 38 451 b 36 854 33 633 33 744 b 149 964 38 924 78 960 b 274 964 190 965 232 964 l 393 964 b 456 904 443 963 454 951 b 367 732 458 797 463 796 b 353 724 363 729 358 726 b 301 744 325 710 313 714 b 294 767 299 751 297 760 b 260 790 288 782 276 790 b 218 765 240 792 226 782 b 211 738 215 757 213 747 b 213 618 211 697 210 658 b 267 564 215 582 231 568 b 335 563 289 563 311 564 b 374 561 347 563 361 563 b 454 481 424 554 447 531 "},"T":{"ha":615,"x_min":0,"x_max":0,"o":"m 586 878 b 586 786 588 847 588 817 l 586 753 b 531 726 582 717 564 708 b 497 747 519 732 508 740 b 454 775 483 757 469 768 b 404 733 442 782 404 776 l 404 688 b 404 397 404 590 404 494 b 403 90 404 292 404 142 b 321 8 403 18 394 10 b 275 10 306 8 290 8 b 219 65 233 13 222 24 l 219 122 b 219 681 219 308 219 494 b 215 749 219 703 219 726 b 149 771 211 781 169 785 b 78 724 125 756 103 738 b 29 747 50 708 31 717 b 31 924 28 806 28 864 b 69 963 31 949 44 960 b 115 965 85 965 100 965 l 499 965 b 586 878 579 965 586 958 "},"U":{"ha":546,"x_min":0,"x_max":0,"o":"m 518 463 b 518 174 518 463 518 269 b 513 106 517 150 517 128 b 429 17 504 57 476 26 b 372 10 411 13 392 10 b 179 10 308 10 244 8 b 29 158 71 13 31 51 b 28 936 28 358 28 736 b 51 965 28 950 35 965 l 175 965 b 215 940 206 965 213 969 b 218 842 218 921 218 863 l 218 274 b 219 217 218 254 217 236 b 275 171 225 186 243 171 b 329 217 306 171 325 186 b 332 279 333 238 332 258 b 333 853 333 471 332 663 b 336 944 333 874 333 924 b 371 963 339 961 354 963 b 499 965 431 961 451 965 b 515 925 514 965 515 940 b 518 758 517 907 518 775 "},"V":{"ha":581,"x_min":0,"x_max":0,"o":"m 518 963 b 553 921 544 961 554 947 b 547 882 553 908 550 894 b 404 110 500 625 453 367 b 393 54 401 92 397 72 b 342 11 386 28 369 11 b 290 10 324 10 307 10 l 290 8 b 233 11 271 10 251 10 b 189 49 210 14 194 26 b 179 88 185 61 182 75 b 32 888 129 354 81 621 b 96 965 19 953 29 964 b 164 963 119 965 142 965 b 204 928 186 961 200 949 b 215 867 208 908 213 888 l 261 524 b 281 458 265 501 267 478 b 300 458 285 453 296 453 b 318 524 313 479 314 501 b 354 800 331 617 342 708 b 368 901 360 835 363 868 b 439 965 378 953 389 964 b 518 963 465 965 492 965 "},"W":{"ha":842,"x_min":0,"x_max":0,"o":"m 781 963 b 814 925 803 961 814 947 b 810 885 814 911 811 899 l 685 93 b 586 10 672 14 665 10 b 493 86 514 10 506 17 b 453 339 479 171 467 256 b 436 406 449 361 443 383 b 419 418 435 413 428 418 b 404 404 411 417 406 411 b 389 343 399 383 393 364 b 350 96 376 261 364 178 b 247 10 338 17 328 8 b 218 11 238 10 228 10 b 163 57 183 14 172 24 b 156 96 160 69 158 83 b 33 878 115 357 74 617 b 28 922 31 892 28 907 b 64 964 28 949 39 960 b 76 965 68 965 72 965 l 115 965 b 215 879 200 965 206 961 b 247 596 226 785 236 690 b 263 531 250 574 251 551 b 275 522 264 526 271 522 b 288 532 279 522 286 528 b 304 603 293 556 300 579 l 342 868 b 351 924 344 886 347 906 b 399 965 356 950 372 963 l 410 965 b 496 894 472 968 488 956 b 535 625 510 806 521 715 b 553 536 539 594 546 565 b 568 522 554 529 560 521 b 583 538 576 524 581 531 b 593 588 588 554 590 571 b 625 864 604 681 614 772 b 635 926 628 885 631 906 b 678 964 639 950 654 963 b 781 963 711 965 746 965 "},"X":{"ha":556,"x_min":0,"x_max":0,"o":"m 524 74 b 476 8 535 24 525 11 l 447 8 b 338 96 361 8 356 13 b 308 222 326 138 318 181 b 293 265 304 238 299 251 b 276 278 290 272 285 278 b 260 264 268 278 263 271 b 246 221 254 250 249 236 l 217 88 b 204 44 213 74 210 58 b 163 10 197 25 183 13 b 61 11 129 7 94 6 b 28 54 35 14 25 29 b 40 104 31 71 36 88 b 133 444 71 217 101 331 b 132 572 146 488 144 529 b 46 872 103 672 75 772 b 35 928 42 890 36 910 b 60 961 33 946 42 958 b 172 960 97 967 135 967 b 207 926 192 957 201 943 b 222 865 213 906 218 886 b 244 760 229 831 236 794 b 258 717 249 744 253 731 b 278 699 261 707 268 700 b 297 717 289 699 294 708 b 313 772 304 735 308 753 b 343 904 324 815 332 861 b 418 964 354 954 365 963 b 492 961 442 964 467 964 b 519 925 511 958 521 946 b 508 869 518 907 514 888 b 425 581 481 774 454 676 b 424 436 410 532 410 485 b 510 124 454 332 482 228 b 524 74 514 107 519 90 "},"Y":{"ha":592,"x_min":0,"x_max":0,"o":"m 533 961 b 564 922 556 958 567 944 b 553 872 563 906 557 889 b 413 326 507 690 461 508 b 394 175 400 276 393 226 b 393 68 394 139 394 103 b 333 8 390 24 378 11 l 293 8 b 293 10 293 8 293 8 b 254 10 281 10 267 8 b 203 63 217 13 206 24 b 201 103 201 76 201 90 b 164 389 207 200 190 294 b 39 872 119 550 81 711 b 28 922 35 889 31 906 b 60 963 26 946 36 958 b 167 963 96 967 132 965 b 211 924 190 960 206 946 b 222 874 215 907 219 890 l 264 657 b 282 597 268 636 271 615 b 310 597 288 586 303 586 b 328 657 321 615 324 636 b 372 885 343 732 357 808 b 471 964 388 958 394 964 b 533 961 492 964 513 964 "},"Z":{"ha":585,"x_min":0,"x_max":0,"o":"m 556 217 b 556 69 557 168 558 118 b 492 10 554 22 540 10 b 304 8 429 8 367 8 l 144 8 b 100 13 131 8 115 10 b 75 46 83 15 74 28 b 86 101 76 64 81 82 l 249 693 b 261 747 254 711 260 729 b 222 793 265 775 250 790 b 164 778 201 794 182 789 b 101 738 143 765 122 750 b 67 718 90 731 79 724 b 32 738 50 713 36 721 b 28 760 29 744 28 751 b 29 907 28 808 26 858 b 89 964 31 951 43 963 b 208 965 128 967 168 965 l 429 965 b 493 879 503 964 513 953 l 489 868 b 335 281 438 669 386 476 b 324 225 329 263 325 244 b 364 182 321 199 338 182 b 422 199 385 181 404 188 b 485 239 443 213 464 226 b 519 258 496 247 507 254 b 553 239 535 265 549 257 b 556 217 556 232 556 224 "},"a":{"ha":581,"x_min":0,"x_max":0,"o":"m 546 101 b 553 50 549 85 551 68 b 522 10 554 28 544 14 b 414 10 486 4 450 4 b 372 50 392 13 378 28 b 358 111 368 71 365 92 b 294 142 349 147 329 156 b 211 57 254 126 221 104 b 144 7 203 21 181 7 b 76 7 122 7 100 6 b 29 67 35 11 25 24 b 35 100 31 78 33 89 l 176 879 b 279 967 190 960 197 965 l 290 967 b 290 965 290 967 290 967 b 336 965 306 965 321 967 b 399 913 376 963 389 951 b 404 885 401 903 403 894 l 546 101 m 272 318 b 313 335 285 314 303 322 b 324 392 324 351 324 371 b 303 500 319 426 317 465 b 290 510 301 504 294 510 b 279 500 286 510 281 504 b 254 350 261 453 256 401 b 272 318 253 336 258 324 "},"b":{"ha":546,"x_min":0,"x_max":0,"o":"m 471 464 b 518 342 508 432 518 390 b 517 143 517 276 517 210 b 515 104 517 131 517 117 b 433 13 508 56 481 25 b 378 7 415 8 396 7 b 104 7 286 6 196 6 b 28 83 39 7 28 18 b 28 486 26 217 28 351 b 28 878 28 617 26 747 b 115 967 28 958 36 965 l 314 967 b 376 961 335 967 356 965 b 467 865 428 951 460 918 b 469 815 469 849 469 832 l 469 610 b 457 521 469 581 469 550 b 471 464 449 499 453 479 m 210 753 b 210 594 208 700 208 647 b 269 542 213 557 233 542 b 333 599 310 542 329 558 b 333 671 335 622 333 647 b 333 739 333 694 333 717 l 333 750 b 269 806 328 789 310 806 b 210 753 232 807 213 790 m 335 222 b 335 351 336 265 336 308 b 274 403 332 388 313 403 b 210 349 232 404 214 389 b 210 286 208 328 210 307 b 210 225 210 265 208 244 b 271 167 213 183 231 167 b 335 222 310 167 332 183 "},"c":{"ha":483,"x_min":0,"x_max":0,"o":"m 449 343 b 454 310 451 332 454 321 l 454 76 b 454 65 454 72 454 69 b 401 11 450 26 439 15 b 379 10 394 11 386 10 b 158 11 306 10 232 10 l 129 11 b 32 104 72 18 39 49 b 28 167 28 125 28 146 l 28 485 b 28 808 28 593 28 701 b 32 871 29 829 29 850 b 117 960 40 918 68 950 b 167 965 133 963 150 965 l 383 965 b 411 964 392 965 401 965 b 451 924 438 960 449 949 b 451 822 456 890 457 856 b 438 792 450 811 444 800 b 346 726 411 764 379 743 b 310 743 329 718 317 725 b 300 769 306 751 304 761 b 256 797 292 790 276 799 b 215 763 235 794 219 783 b 211 718 211 749 211 732 b 211 251 210 563 210 407 b 215 207 211 236 213 221 b 263 174 222 185 240 172 b 303 210 283 175 297 188 b 306 238 304 218 306 228 b 356 321 304 275 324 301 b 418 358 376 333 396 347 b 449 343 431 365 446 357 "},"d":{"ha":533,"x_min":0,"x_max":0,"o":"m 506 163 b 497 96 506 140 501 117 b 418 15 489 51 461 25 b 350 7 396 11 374 7 b 100 7 267 6 183 7 l 83 7 b 29 58 44 11 32 21 b 28 110 28 76 28 93 l 28 492 l 28 878 b 115 967 29 958 36 965 l 354 967 b 422 960 378 965 400 964 b 499 885 464 951 490 925 b 506 822 503 864 506 843 m 208 219 b 264 167 213 185 231 168 b 322 217 296 167 317 183 b 325 256 324 229 325 243 l 325 717 b 319 767 325 733 324 750 b 264 806 313 793 292 806 b 210 764 235 806 215 792 b 206 708 207 746 206 726 l 206 486 b 206 271 206 414 206 343 b 208 219 206 254 206 236 "},"e":{"ha":493,"x_min":0,"x_max":0,"o":"m 465 132 b 465 69 465 117 465 96 b 403 7 464 22 450 7 b 151 6 319 6 235 6 l 135 6 b 92 7 121 6 106 6 l 90 7 b 60 10 78 7 68 8 b 57 11 58 10 58 11 b 54 13 56 11 54 11 l 51 13 b 47 15 50 14 49 15 l 46 17 b 42 19 44 17 43 18 l 42 21 b 40 21 42 21 40 21 b 31 46 35 28 31 36 b 29 51 29 47 29 50 b 28 74 29 58 28 65 b 28 118 26 88 28 103 l 28 265 b 28 483 28 339 28 411 l 28 853 b 28 899 28 868 26 883 b 90 964 29 950 40 964 b 403 964 194 967 299 965 b 465 901 450 964 464 950 b 385 738 468 789 464 790 l 365 725 b 306 750 329 704 322 707 b 300 765 304 754 303 760 b 264 788 293 781 281 788 b 224 761 246 788 231 778 b 218 733 221 753 218 743 l 218 597 b 221 575 218 590 219 582 b 261 554 226 557 243 547 b 297 571 274 558 285 565 b 336 593 310 578 322 588 b 374 574 356 603 371 594 b 375 478 379 542 378 510 b 339 428 371 456 357 440 b 268 381 317 413 293 396 b 217 288 232 360 217 329 b 218 244 217 274 218 258 l 218 238 b 224 210 218 228 221 218 b 264 183 231 193 246 183 b 300 206 281 183 293 190 b 306 222 303 211 304 217 b 308 229 307 224 308 226 b 357 293 314 257 331 278 b 419 332 378 307 399 321 b 456 336 433 339 444 346 b 465 308 458 332 465 321 "},"f":{"ha":494,"x_min":0,"x_max":0,"o":"m 465 901 b 385 738 469 789 464 790 l 367 725 b 307 750 329 704 322 707 b 300 765 304 754 303 760 b 264 788 293 781 281 788 b 224 761 246 788 231 778 b 218 733 221 753 219 743 l 218 597 b 222 575 218 590 219 582 b 261 554 228 557 243 547 b 297 571 274 558 286 565 b 336 593 310 578 322 588 b 375 574 356 603 371 594 b 375 478 379 542 379 510 b 340 428 372 456 358 440 l 269 381 b 218 288 233 360 217 329 b 218 89 219 221 218 154 b 135 6 217 15 207 6 b 68 8 113 6 90 6 b 31 46 46 11 33 25 b 28 103 28 65 28 83 l 28 483 b 28 853 28 607 28 729 l 28 899 b 92 964 31 950 42 964 b 404 964 196 967 300 965 b 465 901 451 964 464 950 "},"g":{"ha":533,"x_min":0,"x_max":0,"o":"m 506 93 b 415 6 504 15 496 6 l 182 6 b 115 11 160 6 136 7 b 31 106 64 24 36 54 b 28 168 28 126 28 147 l 28 488 l 28 811 b 32 874 28 832 28 853 b 107 957 39 918 64 946 b 163 965 125 963 144 965 l 385 965 b 418 963 396 965 407 964 b 451 928 438 958 450 947 b 451 815 457 890 457 853 b 431 776 450 799 443 785 b 346 718 403 756 375 736 b 303 738 325 706 313 713 b 294 765 300 747 299 757 b 253 789 286 782 271 790 b 217 757 235 786 221 776 b 211 718 214 744 211 732 l 211 251 b 213 229 211 244 211 236 b 282 175 218 188 242 168 b 324 214 306 178 319 190 b 328 260 326 229 326 244 l 328 379 b 368 456 328 413 342 438 b 374 460 371 457 372 458 l 376 460 b 379 463 379 460 379 463 b 381 465 381 464 382 464 b 403 481 389 471 396 475 l 403 479 b 436 503 404 479 436 503 l 453 513 b 504 481 485 531 500 519 b 506 446 506 468 506 457 "},"h":{"ha":551,"x_min":0,"x_max":0,"o":"m 524 481 b 522 106 524 356 524 231 b 418 6 522 11 515 4 b 385 7 407 6 396 6 b 336 58 350 11 338 24 b 335 172 333 96 335 133 b 333 354 335 232 335 293 b 315 404 333 372 335 393 b 258 390 293 415 275 400 b 218 313 229 372 218 344 l 218 136 b 217 57 218 110 219 83 b 167 7 214 22 201 10 b 76 7 136 4 106 6 b 36 47 50 10 39 22 b 33 104 33 67 33 86 b 33 667 33 292 35 479 b 28 872 33 735 28 803 b 124 965 28 956 39 965 b 218 872 211 965 218 958 l 218 644 b 222 593 218 628 219 610 b 265 571 226 571 244 563 b 335 665 306 589 335 615 b 335 869 333 733 335 801 b 336 921 335 886 335 904 b 375 963 340 946 351 958 b 483 963 411 968 447 968 b 519 924 504 958 517 944 b 522 868 522 906 522 886 b 524 481 524 739 522 610 "},"i":{"ha":238,"x_min":0,"x_max":0,"o":"m 210 100 b 207 49 210 83 210 67 b 171 11 206 28 193 14 b 64 11 135 7 100 7 b 31 46 44 15 33 28 b 28 103 28 65 28 83 l 28 489 b 28 882 28 490 28 751 b 114 965 28 957 38 965 b 210 874 201 965 210 960 "},"j":{"ha":511,"x_min":0,"x_max":0,"o":"m 483 511 b 483 165 483 396 483 281 b 481 103 483 144 483 124 b 378 6 472 44 436 13 b 367 4 375 4 371 4 b 140 6 292 4 215 3 b 29 114 68 7 31 43 b 28 399 26 210 28 304 b 68 475 28 432 40 457 b 135 518 90 489 113 506 b 179 494 158 532 175 522 b 181 449 181 479 181 464 l 181 283 b 181 239 181 268 181 254 b 240 167 183 186 201 165 b 299 240 279 167 296 186 b 300 303 300 261 300 282 l 300 863 b 303 922 300 882 300 903 b 342 964 306 949 317 960 b 443 964 375 968 410 968 b 481 926 464 961 478 947 b 483 867 482 907 483 886 "},"k":{"ha":557,"x_min":0,"x_max":0,"o":"m 521 97 b 529 47 524 81 528 64 b 497 8 531 25 519 11 b 367 10 453 3 410 1 b 286 90 324 19 297 49 b 258 208 276 129 268 169 b 235 257 254 226 253 246 b 215 211 215 246 217 226 b 213 96 214 172 214 133 b 211 44 213 79 213 61 b 174 8 208 24 194 10 b 65 8 138 3 101 3 b 31 47 44 11 32 25 b 28 92 29 61 28 76 l 28 878 b 31 924 28 893 29 908 b 68 961 33 944 47 958 b 175 960 104 965 140 965 b 210 926 194 957 207 944 b 213 875 213 910 213 892 b 215 715 214 822 213 769 b 235 665 215 697 207 667 b 261 710 254 664 257 693 b 294 836 274 751 283 794 b 310 892 299 856 303 874 b 379 954 322 922 346 944 b 497 960 418 967 457 965 b 528 919 519 957 531 943 b 515 864 525 901 521 882 b 442 583 492 771 468 676 b 439 460 431 542 431 501 b 521 97 467 340 494 218 "},"l":{"ha":490,"x_min":0,"x_max":0,"o":"m 461 221 b 461 56 464 165 464 111 b 417 8 461 24 447 13 b 388 7 407 7 397 7 l 161 7 b 121 11 147 7 133 8 b 32 100 72 19 39 51 b 29 163 29 121 29 142 b 28 515 28 281 28 397 b 29 879 28 636 28 757 b 114 964 29 956 38 963 l 147 964 b 214 894 201 961 213 951 l 214 843 b 214 293 214 660 214 476 b 217 231 214 272 214 251 b 285 179 222 192 246 175 b 346 204 307 181 328 192 b 408 246 367 218 386 233 b 461 221 440 265 460 257 "},"m":{"ha":667,"x_min":0,"x_max":0,"o":"m 638 917 b 639 867 639 900 639 883 l 639 110 b 636 49 639 89 639 68 b 599 11 633 26 619 14 b 485 11 561 7 522 7 b 447 49 464 14 450 26 b 446 99 446 65 446 82 b 444 264 444 154 446 210 b 438 326 444 285 440 306 b 424 342 438 333 433 340 b 407 331 415 343 410 338 b 390 289 400 317 394 303 b 363 196 381 258 372 226 b 344 154 357 182 351 168 b 319 154 340 146 326 146 b 303 196 310 167 307 181 b 271 299 292 231 282 265 b 254 335 267 311 260 322 b 244 340 253 338 249 339 b 232 331 239 340 235 336 b 222 281 224 315 224 299 l 222 133 b 221 60 222 108 222 83 b 171 10 218 25 207 13 b 74 11 139 8 106 8 b 29 58 43 13 32 25 b 28 108 26 75 28 92 l 28 483 b 28 865 28 611 28 738 b 29 915 28 882 26 899 b 74 964 32 949 43 963 b 182 964 110 965 146 965 b 232 924 207 963 224 947 l 244 881 b 297 676 263 813 279 744 b 314 629 301 660 307 644 b 350 629 322 613 342 613 b 368 683 357 647 364 665 b 417 869 385 744 401 807 l 429 914 b 494 965 438 947 458 965 b 590 964 526 965 558 967 b 638 917 622 961 633 949 "},"n":{"ha":525,"x_min":0,"x_max":0,"o":"m 497 486 b 497 106 497 360 497 232 b 494 49 497 86 496 68 b 457 11 492 28 479 14 b 344 11 419 7 382 7 b 299 49 321 13 306 26 b 283 103 293 67 289 85 b 242 257 269 154 257 206 b 213 292 238 272 235 296 b 199 253 196 289 199 268 b 196 89 197 199 197 143 b 118 8 194 18 186 10 b 67 11 101 8 83 8 b 31 49 44 15 33 26 b 28 94 28 64 28 79 l 28 879 b 118 965 28 958 38 965 b 222 883 196 965 201 961 b 264 729 236 832 249 781 b 290 690 268 714 271 689 b 308 738 313 693 308 719 b 311 879 311 785 310 832 b 396 965 313 957 319 964 b 442 964 411 965 426 965 b 496 907 482 961 493 950 b 497 856 497 890 497 874 "},"o":{"ha":539,"x_min":0,"x_max":0,"o":"m 511 158 b 507 96 511 138 511 117 b 422 11 500 49 469 19 b 393 8 413 8 403 8 b 149 8 313 8 231 7 b 28 128 69 10 32 49 l 28 157 b 28 817 28 376 28 596 b 31 867 28 833 28 850 b 107 956 36 913 63 943 b 164 964 125 961 144 963 l 374 964 b 401 963 383 964 393 964 b 510 847 471 954 506 917 b 511 772 511 822 511 797 l 511 489 m 235 176 b 326 221 275 151 321 174 b 328 267 328 236 328 251 l 328 476 b 328 715 328 476 328 636 b 322 767 326 732 326 750 b 265 803 317 792 294 804 b 215 765 239 801 221 789 b 211 714 211 749 211 731 l 211 254 b 214 208 211 239 211 224 b 235 176 215 194 222 183 "},"p":{"ha":542,"x_min":0,"x_max":0,"o":"m 513 831 b 514 404 514 689 514 546 b 513 382 514 397 514 389 b 401 269 507 311 471 275 b 311 268 371 268 340 268 l 276 268 b 211 200 228 264 214 250 b 210 93 210 165 211 129 b 207 47 210 78 210 63 b 169 11 204 26 190 14 b 68 11 136 7 101 7 b 31 49 46 14 33 28 b 28 106 29 68 28 86 l 28 486 b 28 878 28 617 28 747 b 117 965 29 958 35 965 l 378 965 b 513 831 474 964 513 926 m 325 610 b 325 722 325 594 325 690 b 322 761 325 736 325 749 b 278 804 318 789 304 801 b 213 753 239 810 218 792 b 210 718 211 742 210 731 l 210 504 b 214 458 211 489 211 474 b 267 418 219 431 238 418 b 321 457 296 418 315 431 b 325 496 324 469 325 483 "},"q":{"ha":571,"x_min":0,"x_max":0,"o":"m 543 68 b 540 50 544 63 543 56 b 469 -19 526 18 503 -6 b 438 -14 458 -24 447 -21 b 329 11 404 10 367 11 b 181 11 279 10 231 10 b 131 13 164 11 147 11 b 29 117 69 21 35 56 b 28 208 28 147 28 178 l 28 492 b 28 810 28 467 28 706 b 31 872 28 831 28 851 b 124 965 38 924 72 957 l 135 965 b 401 965 224 965 313 968 b 508 861 465 963 503 925 b 511 788 511 838 511 813 l 511 226 b 538 85 511 176 507 128 b 543 68 538 83 538 85 m 264 172 b 322 214 296 171 317 185 b 326 260 326 229 326 244 l 326 724 b 325 758 326 735 326 747 b 267 807 319 792 300 807 b 213 754 233 807 217 792 b 211 710 211 740 211 725 l 211 494 b 211 268 211 418 211 343 b 214 217 211 250 211 233 b 264 172 218 188 236 174 "},"r":{"ha":536,"x_min":0,"x_max":0,"o":"m 508 54 b 481 13 511 31 503 15 b 372 13 444 7 408 7 b 335 43 354 14 342 26 b 321 86 329 57 325 71 b 276 250 306 140 292 196 b 251 326 269 276 260 301 b 233 346 249 335 244 346 b 218 325 221 346 219 333 b 213 257 215 303 213 279 b 211 97 211 204 211 151 b 210 53 211 83 211 67 b 169 11 206 26 194 14 b 68 11 136 7 101 7 b 31 50 47 15 33 28 b 29 106 29 68 29 88 b 28 488 28 233 28 360 l 28 863 b 29 914 29 879 28 896 b 78 964 33 950 44 960 b 107 965 88 965 97 965 l 374 965 b 408 964 385 965 397 965 b 504 868 463 956 497 922 b 507 828 507 854 507 842 l 507 521 b 457 407 508 475 499 435 b 438 346 436 393 432 371 b 449 297 440 329 444 313 b 500 99 465 231 482 164 b 508 54 503 83 507 69 m 269 551 b 328 601 304 551 324 567 b 332 679 332 625 331 650 b 326 760 331 703 331 732 b 265 806 322 793 300 807 b 214 756 235 804 217 789 b 214 603 208 706 210 654 b 269 551 217 567 236 551 "},"s":{"ha":485,"x_min":0,"x_max":0,"o":"m 454 481 b 457 440 456 467 457 454 l 457 150 b 456 139 457 147 457 143 b 326 8 453 51 414 11 b 99 8 250 7 174 8 b 64 11 88 8 75 10 b 31 46 46 15 33 26 b 32 158 26 83 25 121 b 56 197 35 175 43 188 b 140 254 83 217 111 236 b 182 236 161 267 174 260 b 190 208 186 226 188 217 b 225 183 196 193 208 183 b 267 206 243 182 258 189 b 275 239 272 215 275 228 b 275 351 276 276 278 314 b 215 413 272 393 257 408 b 147 415 192 415 169 414 b 36 524 74 419 38 451 b 36 854 33 633 33 744 b 149 964 38 924 78 960 b 274 964 190 965 232 964 l 393 964 b 456 904 443 963 454 951 b 367 732 458 797 463 796 b 353 724 363 729 358 726 b 301 744 325 710 313 714 b 294 767 299 751 297 760 b 260 790 288 782 276 790 b 218 765 240 792 226 782 b 211 738 215 757 213 747 b 213 618 211 697 210 658 b 267 564 215 582 231 568 b 335 563 289 563 311 564 b 374 561 347 563 361 563 b 454 481 424 554 447 531 "},"t":{"ha":615,"x_min":0,"x_max":0,"o":"m 586 878 b 586 786 588 847 588 817 l 586 753 b 531 726 582 717 564 708 b 497 747 519 732 508 740 b 454 775 483 757 469 768 b 404 733 442 782 404 776 l 404 688 b 404 397 404 590 404 494 b 403 90 404 292 404 142 b 321 8 403 18 394 10 b 275 10 306 8 290 8 b 219 65 233 13 222 24 l 219 122 b 219 681 219 308 219 494 b 215 749 219 703 219 726 b 149 771 211 781 169 785 b 78 724 125 756 103 738 b 29 747 50 708 31 717 b 31 924 28 806 28 864 b 69 963 31 949 44 960 b 115 965 85 965 100 965 l 499 965 b 586 878 579 965 586 958 "},"u":{"ha":546,"x_min":0,"x_max":0,"o":"m 518 463 b 518 174 518 463 518 269 b 513 106 517 150 517 128 b 429 17 504 57 476 26 b 372 10 411 13 392 10 b 179 10 308 10 244 8 b 29 158 71 13 31 51 b 28 936 28 358 28 736 b 51 965 28 950 35 965 l 175 965 b 215 940 206 965 213 969 b 218 842 218 921 218 863 l 218 274 b 219 217 218 254 217 236 b 275 171 225 186 243 171 b 329 217 306 171 325 186 b 332 279 333 238 332 258 b 333 853 333 471 332 663 b 336 944 333 874 333 924 b 371 963 339 961 354 963 b 499 965 431 961 451 965 b 515 925 514 965 515 940 b 518 758 517 907 518 775 "},"v":{"ha":581,"x_min":0,"x_max":0,"o":"m 518 963 b 553 921 544 961 554 947 b 547 882 553 908 550 894 b 404 110 500 625 453 367 b 393 54 401 92 397 72 b 342 11 386 28 369 11 b 290 10 324 10 307 10 l 290 8 b 233 11 271 10 251 10 b 189 49 210 14 194 26 b 179 88 185 61 182 75 b 32 888 129 354 81 621 b 96 965 19 953 29 964 b 164 963 119 965 142 965 b 204 928 186 961 200 949 b 215 867 208 908 213 888 l 261 524 b 281 458 265 501 267 478 b 300 458 285 453 296 453 b 318 524 313 479 314 501 b 354 800 331 617 342 708 b 368 901 360 835 363 868 b 439 965 378 953 389 964 b 518 963 465 965 492 965 "},"w":{"ha":842,"x_min":0,"x_max":0,"o":"m 781 963 b 814 925 803 961 814 947 b 810 885 814 911 811 899 l 685 93 b 586 10 672 14 665 10 b 493 86 514 10 506 17 b 453 339 479 171 467 256 b 436 406 449 361 443 383 b 419 418 435 413 428 418 b 404 404 411 417 406 411 b 389 343 399 383 393 364 b 350 96 376 261 364 178 b 247 10 338 17 328 8 b 218 11 238 10 228 10 b 163 57 183 14 172 24 b 156 96 160 69 158 83 b 33 878 115 357 74 617 b 28 922 31 892 28 907 b 64 964 28 949 39 960 b 76 965 68 965 72 965 l 115 965 b 215 879 200 965 206 961 b 247 596 226 785 236 690 b 263 531 250 574 251 551 b 275 522 264 526 271 522 b 288 532 279 522 286 528 b 304 603 293 556 300 579 l 342 868 b 351 924 344 886 347 906 b 399 965 356 950 372 963 l 410 965 b 496 894 472 968 488 956 b 535 625 510 806 521 715 b 553 536 539 594 546 565 b 568 522 554 529 560 521 b 583 538 576 524 581 531 b 593 588 588 554 590 571 b 625 864 604 681 614 772 b 635 926 628 885 631 906 b 678 964 639 950 654 963 b 781 963 711 965 746 965 "},"x":{"ha":556,"x_min":0,"x_max":0,"o":"m 524 74 b 476 8 535 24 525 11 l 447 8 b 338 96 361 8 356 13 b 308 222 326 138 318 181 b 293 265 304 238 299 251 b 276 278 290 272 285 278 b 260 264 268 278 263 271 b 246 221 254 250 249 236 l 217 88 b 204 44 213 74 210 58 b 163 10 197 25 183 13 b 61 11 129 7 94 6 b 28 54 35 14 25 29 b 40 104 31 71 36 88 b 133 444 71 217 101 331 b 132 572 146 488 144 529 b 46 872 103 672 75 772 b 35 928 42 890 36 910 b 60 961 33 946 42 958 b 172 960 97 967 135 967 b 207 926 192 957 201 943 b 222 865 213 906 218 886 b 244 760 229 831 236 794 b 258 717 249 744 253 731 b 278 699 261 707 268 700 b 297 717 289 699 294 708 b 313 772 304 735 308 753 b 343 904 324 815 332 861 b 418 964 354 954 365 963 b 492 961 442 964 467 964 b 519 925 511 958 521 946 b 508 869 518 907 514 888 b 425 581 481 774 454 676 b 424 436 410 532 410 485 b 510 124 454 332 482 228 b 524 74 514 107 519 90 "},"y":{"ha":592,"x_min":0,"x_max":0,"o":"m 533 961 b 564 922 556 958 567 944 b 553 872 563 906 557 889 b 413 326 507 690 461 508 b 394 175 400 276 393 226 b 393 68 394 139 394 103 b 333 8 390 24 378 11 l 293 8 b 293 10 293 8 293 8 b 254 10 281 10 267 8 b 203 63 217 13 206 24 b 201 103 201 76 201 90 b 164 389 207 200 190 294 b 39 872 119 550 81 711 b 28 922 35 889 31 906 b 60 963 26 946 36 958 b 167 963 96 967 132 965 b 211 924 190 960 206 946 b 222 874 215 907 219 890 l 264 657 b 282 597 268 636 271 615 b 310 597 288 586 303 586 b 328 657 321 615 324 636 b 372 885 343 732 357 808 b 471 964 388 958 394 964 b 533 961 492 964 513 964 "},"z":{"ha":585,"x_min":0,"x_max":0,"o":"m 556 217 b 556 69 557 168 558 118 b 492 10 554 22 540 10 b 304 8 429 8 367 8 l 144 8 b 100 13 131 8 115 10 b 75 46 83 15 74 28 b 86 101 76 64 81 82 l 249 693 b 261 747 254 711 260 729 b 222 793 265 775 250 790 b 164 778 201 794 182 789 b 101 738 143 765 122 750 b 67 718 90 731 79 724 b 32 738 50 713 36 721 b 28 760 29 744 28 751 b 29 907 28 808 26 858 b 89 964 31 951 43 963 b 208 965 128 967 168 965 l 429 965 b 493 879 503 964 513 953 l 489 868 b 335 281 438 669 386 476 b 324 225 329 263 325 244 b 364 182 321 199 338 182 b 422 199 385 181 404 188 b 485 239 443 213 464 226 b 519 258 496 247 507 254 b 553 239 535 265 549 257 b 556 217 556 232 556 224 "},".":{"ha":246,"x_min":0,"x_max":0,"o":"m 128 185 b 218 88 178 183 218 139 b 124 -4 217 35 178 -4 b 28 89 72 -4 28 39 b 128 185 29 140 75 186 "}," ":{"ha":333,"x_min":0,"x_max":0,"o":""}}}
